<?xml version="1.0" encoding="utf-8"?>
<!-- Generator: Adobe Illustrator 16.0.0, SVG Export Plug-In . SVG Version: 6.00 Build 0)  -->
<!DOCTYPE svg PUBLIC "-//W3C//DTD SVG 1.1//EN" "http://www.w3.org/Graphics/SVG/1.1/DTD/svg11.dtd">
<svg version="1.1" id="Ebene_1" xmlns="http://www.w3.org/2000/svg" xmlns:xlink="http://www.w3.org/1999/xlink" x="0px" y="0px"
	 width="486px" height="169px" viewBox="0 0 486 169" enable-background="new 0 0 486 169" xml:space="preserve">
<g>
	<g>
		<rect x="33" y="55" fill="#333333" width="175" height="5"/>
		<rect x="287" y="55" fill="#333333" width="169" height="5"/>
	</g>
	<g opacity="0.6">
		<path fill="#98BA1C" d="M266.266,38.723c0,0,6.396-5.509,6.947-11.492c0.551-5.981,0.229-9.029-1.35-10.422
			s-3.441-0.608-2.857,0.965c0.586,1.572,1.768,6.341,1.045,9c-0.725,2.66-3.357,7.518-6.65,8.96c0,0-16.906-11.855-31.454,1.077
			c-14.547,12.933-0.542,33.447-10.948,36.421c6.624,4.577,24.025,13.287,36.453,3.605C270.438,66.715,273.783,48.36,266.266,38.723
			z M237.028,40.017c-13.698,9.709-2.258,22.46-9.537,31.167c0.489-8.349-0.797-20.017,3.969-28.53
			c2.243-4.007,5.759-7.262,10.505-7.772c11.054-1.188,20.497,3.573,20.728,5.133C262.693,40.014,250.725,30.307,237.028,40.017z"/>
		<path fill="#98BA1C" d="M270.092,37.511c1.479,0.127,3.996,0.271,5.445-0.067c1.621-0.376,4.588-0.469,6.594-0.332
			c0.031-0.052,0.063-0.098,0.096-0.15c-1.855-1.006-2.9-2.47-7.643-2.993c-4.74-0.522-4.531,3.394-4.531,3.394
			C270.066,37.416,270.08,37.46,270.092,37.511z"/>
		<path fill="#98BA1C" d="M275.646,37.906c-1.477,0.341-3.906,0.22-5.428,0.094c0.965,3.395,2.664,4.354,5.549,3.717
			c2.879-0.635,4.063-1.078,6.068-4.144C279.938,37.469,277.217,37.54,275.646,37.906z"/>
		<path fill="#98BA1C" d="M262.75,26.923c0.551,1.513,2.332,3.85,3.256,5.005c0.922-0.939,3.023-3.652-0.076-6.491
			c-2.854-2.616-5.471-4.01-6.627-4.553C260.758,22.401,262.025,24.943,262.75,26.923z"/>
		<path fill="#98BA1C" d="M262.303,27.085c-0.76-2.086-2.133-4.805-3.664-6.188c-0.146,1.24-0.654,6.137,0.336,7.768
			c1.139,1.874,2.605,4.464,6.658,3.609c0,0,0.01-0.008,0.025-0.021C264.725,31.089,262.891,28.689,262.303,27.085z"/>
	</g>
	<g>
		<path fill="#333333" d="M97.224,135.631H91.3l-5.805-42.725l-21.137,42.725h-1.501l-21.38-43.05l-5.764,43.05h-5.802l8.479-59.685
			h1.014l24.223,49.014l24.02-49.014h1.014L97.224,135.631z"/>
		<path fill="#333333" d="M158.687,135.631h-5.64v-7.588c-4.783,5.816-10.687,8.724-17.713,8.724
			c-6.377,0-11.754-2.299-16.131-6.898c-4.324-4.517-6.486-9.993-6.486-16.432c0-6.356,2.208-11.792,6.627-16.312
			c4.418-4.517,9.802-6.774,16.153-6.774c7.269,0,13.12,3.084,17.55,9.25v-8.114h5.64V135.631z M153.413,113.801
			c0-5.046-1.653-9.296-4.959-12.75c-3.306-3.455-7.469-5.182-12.488-5.182c-6.747,0-11.78,2.954-15.1,8.864
			c-1.592,2.807-2.388,5.775-2.388,8.904c0,3.132,0.795,6.107,2.388,8.929c1.592,2.82,3.731,5.02,6.417,6.599
			c2.685,1.578,5.566,2.367,8.643,2.367c3.104,0,6.045-0.781,8.824-2.347c2.779-1.566,4.919-3.684,6.417-6.355
			C152.663,120.157,153.413,117.148,153.413,113.801z"/>
		<path fill="#333333" d="M216.621,135.631h-5.681v-21.037c0-4.973-0.216-8.362-0.647-10.175c-1.403-5.862-5.097-8.795-11.084-8.795
			c-3.425,0-6.493,1.129-9.203,3.387c-2.711,2.254-4.497,5.071-5.359,8.449c-0.539,2.136-0.809,6.134-0.809,11.998v16.173h-5.722
			V91.486h5.722v7.911c4.51-6.03,10.022-9.047,16.534-9.047c3.214,0,6.111,0.818,8.691,2.454c2.58,1.637,4.486,3.895,5.714,6.776
			c1.229,2.88,1.844,7.323,1.844,13.328V135.631z"/>
		<path fill="#333333" d="M279.18,126.663c0,6.143-0.541,10.671-1.623,13.593c-1.596,4.301-4.383,7.548-8.357,9.738
			c-3.545,1.947-7.764,2.92-12.66,2.92c-7.574,0-13.43-1.96-17.569-5.883c-1.893-1.812-3.638-4.449-5.234-7.912h6.127
			c3.301,5.708,8.75,8.563,16.352,8.563c7.709,0,12.875-2.539,15.5-7.612c1.135-2.188,1.703-5.71,1.703-10.569v-2.269
			c-4.432,5.6-10.309,8.399-17.633,8.399c-4.025,0-7.822-0.994-11.389-2.982c-3.567-1.989-6.331-4.699-8.29-8.136
			c-1.959-3.436-2.938-7.195-2.938-11.278c0-4.112,1.013-7.927,3.039-11.443c2.027-3.515,4.831-6.302,8.412-8.356
			c3.58-2.057,7.357-3.084,11.328-3.084c6.701,0,12.525,2.934,17.471,8.804v-7.668h5.762V126.663z M273.701,113.193
			c0-6.882-2.793-11.901-8.379-15.059c-2.67-1.512-5.547-2.266-8.621-2.266c-3.213,0-6.195,0.767-8.945,2.306
			c-2.756,1.538-4.913,3.684-6.479,6.437c-1.565,2.754-2.347,5.722-2.347,8.904c0,4.994,1.672,9.042,5.02,12.145
			c3.265,3.05,7.405,4.574,12.427,4.574c5.18,0,9.363-1.552,12.549-4.654C272.109,122.476,273.701,118.348,273.701,113.193z"/>
		<path fill="#333333" d="M341.859,113.68c0,6.491-2.203,11.963-6.613,16.413c-4.408,4.448-9.859,6.674-16.352,6.674
			s-11.949-2.218-16.371-6.653s-6.635-9.914-6.635-16.434c0-6.113,2.029-11.415,6.088-15.905c4.463-4.95,10.102-7.424,16.918-7.424
			c6.789,0,12.416,2.46,16.879,7.383C339.83,102.224,341.859,107.539,341.859,113.68z M336.059,113.801
			c0-4.857-1.654-9.047-4.961-12.569c-3.303-3.521-7.371-5.283-12.203-5.283c-4.83,0-8.898,1.762-12.205,5.283
			c-3.305,3.522-4.957,7.712-4.957,12.569c0,3.131,0.742,6.061,2.227,8.784c1.539,2.808,3.629,4.967,6.273,6.478
			c2.645,1.512,5.531,2.267,8.662,2.267c6.691,0,11.645-2.872,14.857-8.622C335.289,119.955,336.059,116.985,336.059,113.801z"/>
		<path fill="#333333" d="M397.563,135.631h-5.68v-21.037c0-4.973-0.217-8.362-0.648-10.175c-1.402-5.862-5.098-8.795-11.084-8.795
			c-3.426,0-6.494,1.129-9.203,3.387c-2.711,2.254-4.496,5.071-5.359,8.449c-0.541,2.136-0.811,6.134-0.811,11.998v16.173h-5.721
			V91.486h5.721v7.911c4.512-6.03,10.023-9.047,16.535-9.047c3.215,0,6.111,0.818,8.689,2.454c2.584,1.637,4.486,3.895,5.717,6.776
			c1.229,2.88,1.844,7.323,1.844,13.328V135.631z"/>
		<path fill="#333333" d="M453.588,91.486l-26.332,60.292h-5.965l8.48-19.476l-18.139-40.816h5.967l15.215,34l14.77-34H453.588z"/>
	</g>
</g>
</svg>
